<svg width="39" height="39" viewBox="0 0 39 39" fill="none" xmlns="http://www.w3.org/2000/svg">
<path d="M34.1974 23.7343C32.1991 23.9422 30.3565 24.5203 28.7383 25.71C26.2102 27.5681 24.6363 30.0332 24.1585 33.162C24.1005 33.5367 24.1218 33.9266 24.0699 34.2998C23.9153 35.4379 23.3514 36.4803 22.484 37.2315C21.6166 37.9827 20.5054 38.391 19.3588 38.3798C16.8308 38.3798 14.8141 36.4499 14.6263 33.8349C14.4737 31.7566 13.6905 29.9307 12.4021 28.3296C10.5961 26.0862 8.28024 24.6717 5.41327 24.2007C5.00414 24.1349 4.58433 24.1487 4.17214 24.0982C3.04041 23.9588 1.99646 23.4163 1.2308 22.5699C0.46514 21.7235 0.0288172 20.6295 0.00145252 19.4876C-0.062665 16.9475 2.00436 14.7301 4.53089 14.617C6.58113 14.5267 8.33825 13.6887 9.94424 12.476C12.4479 10.5752 13.8188 8.02136 14.2966 4.95065C14.3439 4.6448 14.3409 4.33895 14.3897 4.0331C14.5587 2.92442 15.1138 1.91139 15.9568 1.17336C16.7998 0.435332 17.8763 0.0199283 18.9958 0.000698791C20.1152 -0.0185308 21.2053 0.359654 22.0731 1.06829C22.9409 1.77693 23.5304 2.77031 23.7371 3.87253C24.2547 6.53035 22.409 9.15758 19.7252 9.45119C19.5726 9.46801 19.4199 9.48637 19.2581 9.50777H19.1909C17.2783 9.50687 15.4084 10.0742 13.8178 11.1381C12.2271 12.202 10.9873 13.7146 10.255 15.4845C9.52271 17.2544 9.33096 19.2021 9.70398 21.0813C10.077 22.9604 10.998 24.6864 12.3506 26.0411C13.7031 27.3957 15.4263 28.3181 17.3022 28.6914C19.1782 29.0648 21.1225 28.8724 22.8893 28.1386C24.656 27.4048 26.1658 26.1625 27.2276 24.569C28.2894 22.9754 28.8555 21.1022 28.8543 19.1863C28.8543 19.1557 28.8543 19.1267 28.8543 19.0976C28.8543 19.0686 28.8543 19.0533 28.865 19.0303C29.01 17.9843 29.2131 16.9965 29.8634 16.1401C30.4289 15.4006 31.1988 14.844 32.0775 14.5392C32.9562 14.2345 33.905 14.1951 34.8058 14.4259C35.7067 14.6568 36.52 15.1477 37.1446 15.8377C37.7693 16.5277 38.1777 17.3864 38.3193 18.307C38.7223 21.0015 36.9011 23.4529 34.1974 23.7343Z" fill="#60E1E0"/>
<ellipse cx="5.64993" cy="5.9599" rx="4.2745" ry="4.28186" fill="white"/>
<ellipse cx="5.64993" cy="31.804" rx="4.2745" ry="4.28186" fill="white"/>
<ellipse cx="19.2367" cy="19.2643" rx="4.2745" ry="4.28186" fill="white"/>
<ellipse cx="32.0602" cy="31.804" rx="4.2745" ry="4.28186" fill="white"/>
</svg>
